<svg width="46" height="9" viewBox="0 0 46 9" fill="none" xmlns="http://www.w3.org/2000/svg">
<path d="M0 5.41395V4.35685L4.97947 2.03711V3.34013L1.44142 4.87072L1.48146 4.80098V4.96982L1.44142 4.90008L4.97947 6.43067V7.73369L0 5.41395Z" fill="#EAEAEA" fill-opacity="0.5"/>
<path d="M9.65954 0L7.25717 9H6.1033L8.50568 0H9.65954Z" fill="#EAEAEA" fill-opacity="0.5"/>
<path d="M12.5752 7.9686C12.1359 7.9686 11.7428 7.85481 11.3958 7.62724C11.0488 7.39967 10.7746 7.06933 10.5732 6.63622C10.3718 6.2031 10.2711 5.677 10.2711 5.05791C10.2711 4.43148 10.373 3.90294 10.5768 3.47227C10.7831 3.03915 11.0609 2.71248 11.4104 2.49225C11.7598 2.26958 12.1493 2.15824 12.5788 2.15824C12.9064 2.15824 13.1757 2.21452 13.3869 2.32708C13.598 2.43719 13.7654 2.57055 13.8892 2.72716C14.0129 2.88132 14.1088 3.02692 14.1767 3.16395H14.2313V0.352366H15.5526V7.86949H14.2568V6.98124H14.1767C14.1088 7.11827 14.0105 7.26387 13.8819 7.41803C13.7533 7.56974 13.5834 7.69943 13.3723 7.8071C13.1612 7.91476 12.8955 7.9686 12.5752 7.9686ZM12.9428 6.87847C13.2219 6.87847 13.4597 6.80261 13.6562 6.6509C13.8528 6.49674 14.002 6.28263 14.1039 6.00856C14.2059 5.7345 14.2568 5.41517 14.2568 5.05057C14.2568 4.68597 14.2059 4.36909 14.1039 4.09992C14.0044 3.83075 13.8564 3.62153 13.6599 3.47227C13.4657 3.323 13.2267 3.24837 12.9428 3.24837C12.6492 3.24837 12.4041 3.32545 12.2075 3.47961C12.011 3.63377 11.8629 3.84666 11.7634 4.11827C11.664 4.38989 11.6142 4.70065 11.6142 5.05057C11.6142 5.40294 11.664 5.71737 11.7634 5.99388C11.8654 6.26794 12.0146 6.4845 12.2112 6.64356C12.4101 6.80016 12.654 6.87847 12.9428 6.87847Z" fill="#EAEAEA"/>
<path d="M19.4319 7.97961C18.8714 7.97961 18.3873 7.86215 17.9796 7.62724C17.5743 7.38989 17.2625 7.05465 17.0441 6.62153C16.8257 6.18597 16.7165 5.67333 16.7165 5.08361C16.7165 4.50367 16.8257 3.9947 17.0441 3.55669C17.2649 3.11623 17.5731 2.77365 17.9687 2.52896C18.3642 2.28181 18.8289 2.15824 19.3628 2.15824C19.7074 2.15824 20.0325 2.21452 20.3383 2.32708C20.6465 2.43719 20.9182 2.60848 21.1536 2.84095C21.3914 3.07341 21.5783 3.36949 21.7142 3.7292C21.8501 4.08646 21.918 4.51224 21.918 5.00653V5.41395H17.3353V4.51835H20.655C20.6525 4.26387 20.5979 4.03752 20.4912 3.83932C20.3844 3.63866 20.2351 3.48083 20.0434 3.36582C19.8542 3.25082 19.6333 3.19331 19.381 3.19331C19.1116 3.19331 18.875 3.25938 18.6712 3.39152C18.4673 3.52121 18.3084 3.6925 18.1943 3.90538C18.0827 4.11582 18.0257 4.34706 18.0233 4.5991V5.38091C18.0233 5.70881 18.0827 5.99021 18.2016 6.22512C18.3205 6.45759 18.4868 6.63622 18.7003 6.76101C18.9138 6.88336 19.1638 6.94454 19.4501 6.94454C19.6418 6.94454 19.8153 6.91762 19.9706 6.86379C20.1259 6.8075 20.2606 6.72553 20.3747 6.61786C20.4887 6.5102 20.5749 6.37684 20.6331 6.21778L21.8634 6.35726C21.7858 6.68516 21.6377 6.97145 21.4193 7.21615C21.2034 7.4584 20.9267 7.64682 20.5894 7.7814C20.2521 7.91354 19.8663 7.97961 19.4319 7.97961Z" fill="#EAEAEA"/>
<path d="M27.8666 2.23165L25.8756 7.86949H24.4196L22.4285 2.23165H23.8336L25.1185 6.41966H25.1767L26.4652 2.23165H27.8666Z" fill="#EAEAEA"/>
<path d="M31.027 7.97961C30.4689 7.97961 29.9896 7.85604 29.5892 7.60889C29.1913 7.36175 28.8843 7.02039 28.6683 6.58483C28.4548 6.14682 28.348 5.64274 28.348 5.07259C28.348 4.5 28.4572 3.9947 28.6756 3.55669C28.894 3.11623 29.2022 2.77365 29.6002 2.52896C30.0006 2.28181 30.4737 2.15824 31.0197 2.15824C31.4735 2.15824 31.8751 2.24266 32.2246 2.4115C32.5764 2.5779 32.8567 2.81403 33.0654 3.1199C33.2741 3.42333 33.393 3.77814 33.4221 4.18434H32.1627C32.1117 3.91272 31.9904 3.68638 31.7987 3.5053C31.6094 3.32178 31.3558 3.23002 31.0379 3.23002C30.7686 3.23002 30.532 3.30343 30.3281 3.45024C30.1243 3.59462 29.9654 3.80261 29.8513 4.07423C29.7397 4.34584 29.6839 4.67129 29.6839 5.05057C29.6839 5.43475 29.7397 5.76509 29.8513 6.0416C29.9629 6.31566 30.1195 6.52732 30.3209 6.67659C30.5247 6.82341 30.7637 6.89682 31.0379 6.89682C31.2321 6.89682 31.4056 6.86011 31.5585 6.78671C31.7138 6.71085 31.8436 6.60196 31.9479 6.46003C32.0523 6.31811 32.1239 6.1456 32.1627 5.9425H33.4221C33.3906 6.34135 33.2741 6.69494 33.0727 7.00326C32.8713 7.30914 32.5971 7.54894 32.25 7.72268C31.903 7.89396 31.4954 7.97961 31.027 7.97961Z" fill="#EAEAEA"/>
<path d="M36.9429 7.97961C36.3969 7.97961 35.9237 7.85848 35.5233 7.61623C35.1229 7.37398 34.8123 7.03507 34.5915 6.59951C34.3731 6.16395 34.2639 5.65498 34.2639 5.07259C34.2639 4.49021 34.3731 3.98002 34.5915 3.54201C34.8123 3.104 35.1229 2.76387 35.5233 2.52162C35.9237 2.27936 36.3969 2.15824 36.9429 2.15824C37.4889 2.15824 37.9621 2.27936 38.3625 2.52162C38.7629 2.76387 39.0722 3.104 39.2906 3.54201C39.5115 3.98002 39.6219 4.49021 39.6219 5.07259C39.6219 5.65498 39.5115 6.16395 39.2906 6.59951C39.0722 7.03507 38.7629 7.37398 38.3625 7.61623C37.9621 7.85848 37.4889 7.97961 36.9429 7.97961ZM36.9501 6.91517C37.2462 6.91517 37.4937 6.8332 37.6927 6.66925C37.8917 6.50285 38.0397 6.28018 38.1368 6.00122C38.2363 5.72227 38.286 5.4115 38.286 5.06892C38.286 4.7239 38.2363 4.41191 38.1368 4.13295C38.0397 3.85155 37.8917 3.62765 37.6927 3.46126C37.4937 3.29486 37.2462 3.21166 36.9501 3.21166C36.6468 3.21166 36.3944 3.29486 36.193 3.46126C35.9941 3.62765 35.8448 3.85155 35.7453 4.13295C35.6483 4.41191 35.5997 4.7239 35.5997 5.06892C35.5997 5.4115 35.6483 5.72227 35.7453 6.00122C35.8448 6.28018 35.9941 6.50285 36.193 6.66925C36.3944 6.8332 36.6468 6.91517 36.9501 6.91517Z" fill="#EAEAEA"/>
<path d="M46 5.41395L41.0205 7.73369V6.43067L44.5586 4.90008L44.5185 4.96982V4.80098L44.5586 4.87072L41.0205 3.34013V2.03711L46 4.35685V5.41395Z" fill="#EAEAEA" fill-opacity="0.5"/>
</svg>
